HIERARCHY
ROOT pelvis
{
  OFFSET 0 100 0
  CHANNELS 6 Xposition Yposition Zposition Zrotation Xrotation Yrotation
  JOINT pelvis_right_femur
  {
    OFFSET -10.78128 -3.44521 -0.5502486
    CHANNELS 3 Zrotation Xrotation Yrotation
    JOINT right_femur_tibia
    {
      OFFSET -0.8047443 -44.0398 -0.1307829
      CHANNELS 3 Zrotation Xrotation Yrotation
      JOINT right_tibia_foot
      {
        OFFSET 3.006224 -47.83518 -5
        CHANNELS 3 Zrotation Xrotation Yrotation
        End Site
        {
          OFFSET 0 -5 15
        }
      }
    }
  }
  JOINT pelvis_left_femur
  {
    OFFSET 10.78128 -3.44521 -0.5502486
    CHANNELS 3 Zrotation Xrotation Yrotation
    JOINT left_femur_tibia
    {
      OFFSET 0.8047443 -44.0398 -0.1307829
      CHANNELS 3 Zrotation Xrotation Yrotation
      JOINT left_tibia_foot
      {
        OFFSET -4.370144 -48.10324 -4.275266
        CHANNELS 3 Zrotation Xrotation Yrotation
        End Site
        {
          OFFSET 0 -5 15
        }
      }
    }
  }
  JOINT pelvis_spine1
  {
    OFFSET 0 6.468898 -3.129235
    CHANNELS 3 Zrotation Xrotation Yrotation
    JOINT spine1
    {
      OFFSET 0 23.15396 4.99043
      CHANNELS 3 Zrotation Xrotation Yrotation
      JOINT spine2
      {
        OFFSET 0 20.79997 -5.064912
        CHANNELS 3 Zrotation Xrotation Yrotation
        JOINT neck
        {
          OFFSET 0 14.38658 9.616178
          CHANNELS 3 Zrotation Xrotation Yrotation
          End Site
          {
            OFFSET 0 20 0
          }
        }
      }
      JOINT right_manubrium
      {
        OFFSET -5.722621 16.35077 3.967754
        CHANNELS 3 Zrotation Xrotation Yrotation
        JOINT right_clavicle
        {
          OFFSET -13.16364 1.694482 -4.693211
          CHANNELS 3 Zrotation Xrotation Yrotation
          JOINT right_humerus
          {
            OFFSET -28.5034 -0.3100689 -2.792744
            CHANNELS 3 Zrotation Xrotation Yrotation
            JOINT right_radius
            {
              OFFSET -25.15693 0.02248979 -1.271978
              CHANNELS 3 Zrotation Xrotation Yrotation
              End Site
              {
                OFFSET -15 0 0
              }
            }
          }
        }
      }
      JOINT left_manubrium
      {
        OFFSET 5.722621 16.35077 3.967754
        CHANNELS 3 Zrotation Xrotation Yrotation
        JOINT left_clavicle
        {
          OFFSET 13.16364 1.694482 -4.693211
          CHANNELS 3 Zrotation Xrotation Yrotation
          JOINT left_humerus
          {
            OFFSET 29.39168 -1.063119 -2.237045
            CHANNELS 3 Zrotation Xrotation Yrotation
            JOINT left_radius
            {
              OFFSET 24.59957 -0.9528479 0.9047498
              CHANNELS 3 Zrotation Xrotation Yrotation
              End Site
              {
                OFFSET 15 -0 -0
              }
            }
          }
        }
      }
    }
  }
}
MOTION
Frames: 23
Frame Time: 0.0416666666667
-25.04379 106.0685 2624.25 0.6262018 -8.205331 -5.968587 -0.6626372 -13.26058 -9.521884 -0 22.13356 -0 -16.86502 11.43324 7.248899 -4.053463 5.543573 -13.14277 -0 15.29135 -0 -1.237339 -14.998 16.84756 -1.690681 -0.544895 2.928192 -1.80608 14.4684 -4.632349 0.9706156 22.42729 8.144118 8.412124 -17.43021 4.959699 2.926735 -18.61632 11.60211 88.34495 28.94229 -15.56316 -0 0 12.84869 -27.15083 10.07857 10.10797 10.14397 -26.58529 -8.258559 -87.31539 7.648784 10.71053 0 0 -13.94127 19.80699 13.23522 -15.03345
-25.02577 106.0634 2629.5 0.6267049 -8.205293 -5.965062 -0.6626372 -13.26058 -9.521884 -0 22.13356 -0 -16.86502 11.43324 7.248899 -4.053463 5.543573 -13.14277 -0 15.29135 -0 -1.237339 -14.998 16.84756 -1.690681 -0.544895 2.928192 -1.80608 14.4684 -4.632349 0.9706156 22.42729 8.144118 8.412124 -17.43021 4.959699 2.926735 -18.61632 11.60211 88.34495 28.94229 -15.56316 -0 0 12.84869 -27.15083 10.07857 10.10797 10.14397 -26.58529 -8.258559 -87.31539 7.648784 10.71053 0 0 -13.94127 19.80699 13.23522 -15.03345
-25.00743 106.0582 2634.75 0.627208 -8.205254 -5.961537 -0.6626372 -13.26058 -9.521884 -0 22.13356 -0 -16.86502 11.43324 7.248899 -4.053463 5.543573 -13.14277 -0 15.29135 -0 -1.237339 -14.998 16.84756 -1.690681 -0.544895 2.928192 -1.80608 14.4684 -4.632349 0.9706156 22.42729 8.144118 8.412124 -17.43021 4.959699 2.926735 -18.61632 11.60211 88.34495 28.94229 -15.56316 -0 0 12.84869 -27.15083 10.07857 10.10797 10.14397 -26.58529 -8.258559 -87.31539 7.648784 10.71053 0 0 -13.94127 19.80699 13.23522 -15.03345
-24.98877 106.0531 2640 0.6277111 -8.205216 -5.958012 -0.6626372 -13.26058 -9.521884 -0 22.13356 -0 -16.86502 11.43324 7.248899 -4.053463 5.543573 -13.14277 -0 15.29135 -0 -1.237339 -14.998 16.84756 -1.690681 -0.544895 2.928192 -1.80608 14.4684 -4.632349 0.9706156 22.42729 8.144118 8.412124 -17.43021 4.959699 2.926735 -18.61632 11.60211 88.34495 28.94229 -15.56316 -0 0 12.84869 -27.15083 10.07857 10.10797 10.14397 -26.58529 -8.258559 -87.31539 7.648784 10.71053 0 0 -13.94127 19.80699 13.23522 -15.03345
-24.96979 106.048 2645.25 0.6282143 -8.205178 -5.954486 -0.6626372 -13.26058 -9.521884 -0 22.13356 -0 -16.86502 11.43324 7.248899 -4.053463 5.543573 -13.14277 -0 15.29135 -0 -1.237339 -14.998 16.84756 -1.690681 -0.544895 2.928192 -1.80608 14.4684 -4.632349 0.9706156 22.42729 8.144118 8.412124 -17.43021 4.959699 2.926735 -18.61632 11.60211 88.34495 28.94229 -15.56316 -0 0 12.84869 -27.15083 10.07857 10.10797 10.14397 -26.58529 -8.258559 -87.31539 7.648784 10.71053 0 0 -13.94127 19.80699 13.23522 -15.03345
-24.95049 106.0429 2650.5 0.6287174 -8.20514 -5.950961 -0.6626372 -13.26058 -9.521884 -0 22.13356 -0 -16.86502 11.43324 7.248899 -4.053463 5.543573 -13.14277 -0 15.29135 -0 -1.237339 -14.998 16.84756 -1.690681 -0.544895 2.928192 -1.80608 14.4684 -4.632349 0.9706156 22.42729 8.144118 8.412124 -17.43021 4.959699 2.926735 -18.61632 11.60211 88.34495 28.94229 -15.56316 -0 0 12.84869 -27.15083 10.07857 10.10797 10.14397 -26.58529 -8.258559 -87.31539 7.648784 10.71053 0 0 -13.94127 19.80699 13.23522 -15.03345
-24.93087 106.0377 2655.75 0.6292205 -8.205101 -5.947436 -0.6626372 -13.26058 -9.521884 -0 22.13356 -0 -16.86502 11.43324 7.248899 -4.053463 5.543573 -13.14277 -0 15.29135 -0 -1.237339 -14.998 16.84756 -1.690681 -0.544895 2.928192 -1.80608 14.4684 -4.632349 0.9706156 22.42729 8.144118 8.412124 -17.43021 4.959699 2.926735 -18.61632 11.60211 88.34495 28.94229 -15.56316 -0 0 12.84869 -27.15083 10.07857 10.10797 10.14397 -26.58529 -8.258559 -87.31539 7.648784 10.71053 0 0 -13.94127 19.80699 13.23522 -15.03345
-24.91093 106.0326 2661 0.6297236 -8.205063 -5.943911 -0.6626372 -13.26058 -9.521884 -0 22.13356 -0 -16.86502 11.43324 7.248899 -4.053463 5.543573 -13.14277 -0 15.29135 -0 -1.237339 -14.998 16.84756 -1.690681 -0.544895 2.928192 -1.80608 14.4684 -4.632349 0.9706156 22.42729 8.144118 8.412124 -17.43021 4.959699 2.926735 -18.61632 11.60211 88.34495 28.94229 -15.56316 -0 0 12.84869 -27.15083 10.07857 10.10797 10.14397 -26.58529 -8.258559 -87.31539 7.648784 10.71053 0 0 -13.94127 19.80699 13.23522 -15.03345
-24.89068 106.0275 2666.25 0.6302267 -8.205025 -5.940385 -0.6626372 -13.26058 -9.521884 -0 22.13356 -0 -16.86502 11.43324 7.248899 -4.053463 5.543573 -13.14277 -0 15.29135 -0 -1.237339 -14.998 16.84756 -1.690681 -0.544895 2.928192 -1.80608 14.4684 -4.632349 0.9706156 22.42729 8.144118 8.412124 -17.43021 4.959699 2.926735 -18.61632 11.60211 88.34495 28.94229 -15.56316 -0 0 12.84869 -27.15083 10.07857 10.10797 10.14397 -26.58529 -8.258559 -87.31539 7.648784 10.71053 0 0 -13.94127 19.80699 13.23522 -15.03345
-24.8701 106.0224 2671.5 0.6307298 -8.204986 -5.93686 -0.6626372 -13.26058 -9.521884 -0 22.13356 -0 -16.86502 11.43324 7.248899 -4.053463 5.543573 -13.14277 -0 15.29135 -0 -1.237339 -14.998 16.84756 -1.690681 -0.544895 2.928192 -1.80608 14.4684 -4.632349 0.9706156 22.42729 8.144118 8.412124 -17.43021 4.959699 2.926735 -18.61632 11.60211 88.34495 28.94229 -15.56316 -0 0 12.84869 -27.15083 10.07857 10.10797 10.14397 -26.58529 -8.258559 -87.31539 7.648784 10.71053 0 0 -13.94127 19.80699 13.23522 -15.03345
-24.8492 106.0172 2676.75 0.6312329 -8.204948 -5.933335 -0.6626372 -13.26058 -9.521884 -0 22.13356 -0 -16.86502 11.43324 7.248899 -4.053463 5.543573 -13.14277 -0 15.29135 -0 -1.237339 -14.998 16.84756 -1.690681 -0.544895 2.928192 -1.80608 14.4684 -4.632349 0.9706156 22.42729 8.144118 8.412124 -17.43021 4.959699 2.926735 -18.61632 11.60211 88.34495 28.94229 -15.56316 -0 0 12.84869 -27.15083 10.07857 10.10797 10.14397 -26.58529 -8.258559 -87.31539 7.648784 10.71053 0 0 -13.94127 19.80699 13.23522 -15.03345
-24.82798 106.0121 2682 0.631736 -8.204909 -5.92981 -0.6626372 -13.26058 -9.521884 -0 22.13356 -0 -16.86502 11.43324 7.248899 -4.053463 5.543573 -13.14277 -0 15.29135 -0 -1.237339 -14.998 16.84756 -1.690681 -0.544895 2.928192 -1.80608 14.4684 -4.632349 0.9706156 22.42729 8.144118 8.412124 -17.43021 4.959699 2.926735 -18.61632 11.60211 88.34495 28.94229 -15.56316 -0 0 12.84869 -27.15083 10.07857 10.10797 10.14397 -26.58529 -8.258559 -87.31539 7.648784 10.71053 0 0 -13.94127 19.80699 13.23522 -15.03345
-24.80644 106.007 2687.25 0.6322391 -8.204871 -5.926285 -0.6626372 -13.26058 -9.521884 -0 22.13356 -0 -16.86502 11.43324 7.248899 -4.053463 5.543573 -13.14277 -0 15.29135 -0 -1.237339 -14.998 16.84756 -1.690681 -0.544895 2.928192 -1.80608 14.4684 -4.632349 0.9706156 22.42729 8.144118 8.412124 -17.43021 4.959699 2.926735 -18.61632 11.60211 88.34495 28.94229 -15.56316 -0 0 12.84869 -27.15083 10.07857 10.10797 10.14397 -26.58529 -8.258559 -87.31539 7.648784 10.71053 0 0 -13.94127 19.80699 13.23522 -15.03345
-24.78458 106.0019 2692.5 0.6327422 -8.204832 -5.922759 -0.6626372 -13.26058 -9.521884 -0 22.13356 -0 -16.86502 11.43324 7.248899 -4.053463 5.543573 -13.14277 -0 15.29135 -0 -1.237339 -14.998 16.84756 -1.690681 -0.544895 2.928192 -1.80608 14.4684 -4.632349 0.9706156 22.42729 8.144118 8.412124 -17.43021 4.959699 2.926735 -18.61632 11.60211 88.34495 28.94229 -15.56316 -0 0 12.84869 -27.15083 10.07857 10.10797 10.14397 -26.58529 -8.258559 -87.31539 7.648784 10.71053 0 0 -13.94127 19.80699 13.23522 -15.03345
-24.76241 105.9967 2697.75 0.6332453 -8.204794 -5.919234 -0.6626372 -13.26058 -9.521884 -0 22.13356 -0 -16.86502 11.43324 7.248899 -4.053463 5.543573 -13.14277 -0 15.29135 -0 -1.237339 -14.998 16.84756 -1.690681 -0.544895 2.928192 -1.80608 14.4684 -4.632349 0.9706156 22.42729 8.144118 8.412124 -17.43021 4.959699 2.926735 -18.61632 11.60211 88.34495 28.94229 -15.56316 -0 0 12.84869 -27.15083 10.07857 10.10797 10.14397 -26.58529 -8.258559 -87.31539 7.648784 10.71053 0 0 -13.94127 19.80699 13.23522 -15.03345
-24.73991 105.9916 2703 0.6337484 -8.204755 -5.915709 -0.6626372 -13.26058 -9.521884 -0 22.13356 -0 -16.86502 11.43324 7.248899 -4.053463 5.543573 -13.14277 -0 15.29135 -0 -1.237339 -14.998 16.84756 -1.690681 -0.544895 2.928192 -1.80608 14.4684 -4.632349 0.9706156 22.42729 8.144118 8.412124 -17.43021 4.959699 2.926735 -18.61632 11.60211 88.34495 28.94229 -15.56316 -0 0 12.84869 -27.15083 10.07857 10.10797 10.14397 -26.58529 -8.258559 -87.31539 7.648784 10.71053 0 0 -13.94127 19.80699 13.23522 -15.03345
-24.71709 105.9865 2708.249 0.6342515 -8.204717 -5.912184 -0.6626372 -13.26058 -9.521884 -0 22.13356 -0 -16.86502 11.43324 7.248899 -4.053463 5.543573 -13.14277 -0 15.29135 -0 -1.237339 -14.998 16.84756 -1.690681 -0.544895 2.928192 -1.80608 14.4684 -4.632349 0.9706156 22.42729 8.144118 8.412124 -17.43021 4.959699 2.926735 -18.61632 11.60211 88.34495 28.94229 -15.56316 -0 0 12.84869 -27.15083 10.07857 10.10797 10.14397 -26.58529 -8.258559 -87.31539 7.648784 10.71053 0 0 -13.94127 19.80699 13.23522 -15.03345
-24.69396 105.9814 2713.499 0.6347546 -8.204678 -5.908658 -0.6626372 -13.26058 -9.521884 -0 22.13356 -0 -16.86502 11.43324 7.248899 -4.053463 5.543573 -13.14277 -0 15.29135 -0 -1.237339 -14.998 16.84756 -1.690681 -0.544895 2.928192 -1.80608 14.4684 -4.632349 0.9706156 22.42729 8.144118 8.412124 -17.43021 4.959699 2.926735 -18.61632 11.60211 88.34495 28.94229 -15.56316 -0 0 12.84869 -27.15083 10.07857 10.10797 10.14397 -26.58529 -8.258559 -87.31539 7.648784 10.71053 0 0 -13.94127 19.80699 13.23522 -15.03345
-24.6705 105.9762 2718.749 0.6352577 -8.204639 -5.905133 -0.6626372 -13.26058 -9.521884 -0 22.13356 -0 -16.86502 11.43324 7.248899 -4.053463 5.543573 -13.14277 -0 15.29135 -0 -1.237339 -14.998 16.84756 -1.690681 -0.544895 2.928192 -1.80608 14.4684 -4.632349 0.9706156 22.42729 8.144118 8.412124 -17.43021 4.959699 2.926735 -18.61632 11.60211 88.34495 28.94229 -15.56316 -0 0 12.84869 -27.15083 10.07857 10.10797 10.14397 -26.58529 -8.258559 -87.31539 7.648784 10.71053 0 0 -13.94127 19.80699 13.23522 -15.03345
-24.64672 105.9711 2723.999 0.6357607 -8.204601 -5.901608 -0.6626372 -13.26058 -9.521884 -0 22.13356 -0 -16.86502 11.43324 7.248899 -4.053463 5.543573 -13.14277 -0 15.29135 -0 -1.237339 -14.998 16.84756 -1.690681 -0.544895 2.928192 -1.80608 14.4684 -4.632349 0.9706156 22.42729 8.144118 8.412124 -17.43021 4.959699 2.926735 -18.61632 11.60211 88.34495 28.94229 -15.56316 -0 0 12.84869 -27.15083 10.07857 10.10797 10.14397 -26.58529 -8.258559 -87.31539 7.648784 10.71053 0 0 -13.94127 19.80699 13.23522 -15.03345
-24.62263 105.966 2729.249 0.6362638 -8.204562 -5.898083 -0.6626372 -13.26058 -9.521884 -0 22.13356 -0 -16.86502 11.43324 7.248899 -4.053463 5.543573 -13.14277 -0 15.29135 -0 -1.237339 -14.998 16.84756 -1.690681 -0.544895 2.928192 -1.80608 14.4684 -4.632349 0.9706156 22.42729 8.144118 8.412124 -17.43021 4.959699 2.926735 -18.61632 11.60211 88.34495 28.94229 -15.56316 -0 0 12.84869 -27.15083 10.07857 10.10797 10.14397 -26.58529 -8.258559 -87.31539 7.648784 10.71053 0 0 -13.94127 19.80699 13.23522 -15.03345
-24.59821 105.9609 2734.499 0.6367669 -8.204523 -5.894557 -0.6626372 -13.26058 -9.521884 -0 22.13356 -0 -16.86502 11.43324 7.248899 -4.053463 5.543573 -13.14277 -0 15.29135 -0 -1.237339 -14.998 16.84756 -1.690681 -0.544895 2.928192 -1.80608 14.4684 -4.632349 0.9706156 22.42729 8.144118 8.412124 -17.43021 4.959699 2.926735 -18.61632 11.60211 88.34495 28.94229 -15.56316 -0 0 12.84869 -27.15083 10.07857 10.10797 10.14397 -26.58529 -8.258559 -87.31539 7.648784 10.71053 0 0 -13.94127 19.80699 13.23522 -15.03345
-24.57348 105.9557 2739.749 0.63727 -8.204484 -5.891032 -0.6626372 -13.26058 -9.521884 -0 22.13356 -0 -16.86502 11.43324 7.248899 -4.053463 5.543573 -13.14277 -0 15.29135 -0 -1.237339 -14.998 16.84756 -1.690681 -0.544895 2.928192 -1.80608 14.4684 -4.632349 0.9706156 22.42729 8.144118 8.412124 -17.43021 4.959699 2.926735 -18.61632 11.60211 88.34495 28.94229 -15.56316 -0 0 12.84869 -27.15083 10.07857 10.10797 10.14397 -26.58529 -8.258559 -87.31539 7.648784 10.71053 0 0 -13.94127 19.80699 13.23522 -15.03345
